<?xml version="1.0" encoding="UTF-8"?>
<svg version="1.1" xmlns="http://www.w3.org/2000/svg" width="235" height="149">
<path d="M0 0 C0 12.54 0 25.08 0 38 C-1.65 36.35 -3.3 34.7 -5 33 C-17.13795285 22.43442019 -34.95019689 20.45358573 -50.46875 19.21826172 C-52.28918196 19.0612916 -54.10688841 18.87144261 -55.921875 18.66064453 C-67.98688575 16.90316086 -67.98688575 16.90316086 -79.09326172 20.49853516 C-82.55037285 24.18542407 -84.94930572 28.37853382 -87.03051758 32.96362305 C-88.19660958 35.41297419 -89.57984031 37.69051823 -91 40 C-87.08409677 40.71259109 -83.16720053 41.41957641 -79.25 42.125 C-78.01894531 42.34728271 -76.78789062 42.56956543 -75.51953125 42.79858398 C-68.20577128 44.11089035 -60.88436312 45.35473265 -53.546875 46.52734375 C-51.9449769 46.785582 -50.34308885 47.04388263 -48.74121094 47.30224609 C-46.39381481 47.68050775 -44.04615627 48.05536169 -41.69641113 48.41876221 C-12.05882549 53.0037193 -12.05882549 53.0037193 -2.0859375 64.13671875 C-0.51026165 66.36051742 0.78013314 68.56441549 2 71 C2.50660156 71.99580078 2.50660156 71.99580078 3.0234375 73.01171875 C7.18254171 83.02791009 6.00769465 96.03860804 2.43359375 106.03125 C-2.67437378 116.60905742 -11.34820958 121.81161801 -22 126 C-25.96751201 127.27847295 -29.90132239 128.24987599 -34 129 C-35.05767578 129.19529297 -35.05767578 129.19529297 -36.13671875 129.39453125 C-41.80925151 130.25749262 -47.17298367 130 -53 130 C-53 121.42 -53 112.84 -53 104 C-49.04 103.34 -45.08 102.68 -41 102 C-35.55162198 100.16635792 -35.55162198 100.16635792 -31.77734375 96.20703125 C-30.14310033 92.54943883 -29.96422971 90.26827716 -30.5 86.25 C-32.20875533 82.54769679 -33.67758431 81.29568666 -37 79 C-48.69419059 74.7133649 -62.37908611 73.88915869 -74.625 71.9375 C-77.91981703 71.40877092 -81.21442671 70.87878043 -84.50888062 70.34779358 C-86.54445705 70.020088 -88.58026868 69.69383851 -90.61636353 69.36936951 C-97.094068 68.33144744 -103.54995338 67.19772294 -110 66 C-117.62134602 73.38998373 -120.55482631 80.65209035 -120.86968994 91.25050354 C-120.89861099 93.48041749 -120.89352264 95.70750179 -120.875 97.9375 C-120.87435547 98.66605194 -120.87371094 99.39460388 -120.87304688 100.14523315 C-120.82284237 108.13144814 -120.77592285 115.3120668 -116 122 C-113.52078451 123.95301314 -113.52078451 123.95301314 -110.75 125 C-109.85796875 125.391875 -108.9659375 125.78375 -108.046875 126.1875 C-107.37140625 126.455625 -106.6959375 126.72375 -106 127 C-106 127.33 -106 127.66 -106 128 C-127.78 128 -149.56 128 -172 128 C-170.38626664 126.92417776 -168.75725334 125.86492323 -167.0625 124.921875 C-162.38767275 122.26572315 -159.8290082 120.27184717 -158 115 C-155.75728045 103.14180057 -153.26294443 86.75220149 -159.40625 75.859375 C-162.02049527 72.0484418 -165.03108836 68.6037438 -168.12255859 65.17480469 C-171.38797698 61.3921848 -174.1255947 57.24902174 -176.9375 53.125 C-178.10896468 51.44411777 -179.28214938 49.764433 -180.45703125 48.0859375 C-182.83341077 44.67723405 -185.20471406 41.26504727 -187.57421875 37.8515625 C-203.75473661 11.93353036 -203.75473661 11.93353036 -228 -5 C-228 -5.33 -228 -5.66 -228 -6 C-205.23 -6 -182.46 -6 -159 -6 C-162 -3 -162 -3 -164.125 -1.75 C-166.29237674 0.27288496 -167.04382559 1.85066479 -167.265625 4.8203125 C-165.92105929 15.85366057 -155.98349778 26.20850124 -149.60546875 34.81103516 C-147.23732298 38.03986651 -144.95463744 41.32477189 -142.6875 44.625 C-141.96949219 45.66914062 -141.25148438 46.71328125 -140.51171875 47.7890625 C-140.01285156 48.51867188 -139.51398438 49.24828125 -139 50 C-133.10347766 42.58608816 -127.53200561 35.00859698 -122.1875 27.1875 C-121.37986206 26.00643677 -121.37986206 26.00643677 -120.5559082 24.80151367 C-113.18547931 15.19021672 -113.18547931 15.19021672 -110 4 C-111.38687103 -0.1606131 -112.37779338 -1.6339961 -116.1875 -3.875 C-117.115625 -4.24625 -118.04375 -4.6175 -119 -5 C-119 -5.33 -119 -5.66 -119 -6 C-118.15405273 -6.02505615 -117.30810547 -6.0501123 -116.43652344 -6.07592773 C-113.23819782 -6.17219183 -110.03997695 -6.27133905 -106.84179688 -6.37231445 C-105.46878444 -6.41510091 -104.0957377 -6.45680326 -102.72265625 -6.49731445 C-96.08404372 -6.69385232 -89.47056275 -6.91510902 -82.85546875 -7.5234375 C-55.9932211 -9.93484741 -25.78318305 -8.59439435 0 0 Z M-191 6 C-191.99 6.99 -192.98 7.98 -194 9 C-193.67 9.99 -193.34 10.98 -193 12 C-192.01 12.33 -191.02 12.66 -190 13 C-189.01 12.01 -188.02 11.02 -187 10 C-187.33 9.01 -187.66 8.02 -188 7 C-188.99 6.67 -189.98 6.34 -191 6 Z " fill="#E8580D" transform="translate(228,14)"/>
<path d="M0 0 C22.77 0 45.54 0 69 0 C68.01 0.99 67.02 1.98 66 3 C65.505 2.01 65.505 2.01 65 1 C63.67923462 1.10610596 63.67923462 1.10610596 62.33178711 1.21435547 C53.13608696 1.89711836 44.00129838 2.15691466 34.78149414 2.13037109 C32.53980944 2.12494508 30.29831984 2.13039251 28.05664062 2.13671875 C26.60156207 2.13605881 25.14648363 2.13477939 23.69140625 2.1328125 C21.76083374 2.13112061 21.76083374 2.13112061 19.79125977 2.12939453 C15.78999967 1.99283275 11.96240404 1.55360956 8 1 C8.33 1.99 8.66 2.98 9 4 C6.03 3.01 3.06 2.02 0 1 C0 0.67 0 0.34 0 0 Z " fill="#D16A31" transform="translate(0,8)"/>
<path d="M0 0 C0 4.62 0 9.24 0 14 C-0.721875 13.2575 -1.44375 12.515 -2.1875 11.75 C-6.49247911 7.54068709 -10.52677114 4.54568784 -16 2 C-13.50935112 1.31292445 -11.62113708 1 -9 1 C-9 1.66 -9 2.32 -9 3 C-7.88625 2.505 -6.7725 2.01 -5.625 1.5 C-2 0 -2 0 0 0 Z " fill="#D75F21" transform="translate(228,38)"/>
<path d="M0 0 C0.33 0 0.66 0 1 0 C1 2.64 1 5.28 1 8 C1.99 7.67 2.98 7.34 4 7 C4 7.99 4 8.98 4 10 C2.68 10 1.36 10 0 10 C-0.4125 10.969375 -0.825 11.93875 -1.25 12.9375 C-3 16 -3 16 -5.1875 16.875 C-5.785625 16.91625 -6.38375 16.9575 -7 17 C-7 17.66 -7 18.32 -7 19 C-9.64 19 -12.28 19 -15 19 C-13.38626664 17.92417776 -11.75725334 16.86492323 -10.0625 15.921875 C-5.38767275 13.26572315 -2.8290082 11.27184717 -1 6 C-0.29241674 2.7633037 -0.29241674 2.7633037 0 0 Z " fill="#D36124" transform="translate(71,123)"/>
<path d="M0 0 C2.475 0.495 2.475 0.495 5 1 C4.67402832 1.48952148 4.34805664 1.97904297 4.01220703 2.48339844 C2.57916886 6.04629219 2.75382342 9.48719266 2.8046875 13.265625 C2.8075174 14.05902283 2.81034729 14.85242065 2.81326294 15.66986084 C2.82443221 18.19672917 2.84953056 20.72323932 2.875 23.25 C2.88503402 24.9661407 2.89415913 26.68228698 2.90234375 28.3984375 C2.92436086 32.59909574 2.95886813 36.7994872 3 41 C-0.05080946 37.94919054 0.64211292 34.37189221 0.5859375 30.2734375 C0.56657135 29.41062164 0.5472052 28.54780579 0.5272522 27.65884399 C0.46737796 24.89766384 0.42104002 22.13644216 0.375 19.375 C0.33682741 17.50518995 0.29777611 15.63539762 0.2578125 13.765625 C0.16167008 9.17722691 0.07766834 4.58874649 0 0 Z " fill="#D25D26" transform="translate(105,90)"/>
<path d="M0 0 C2.35114365 1.17557182 2.89957521 2.19348094 4.3125 4.375 C6.50220141 7.56831456 8.62713235 9.07264706 12 11 C12 14 12 14 11 16 C10.24074219 15.16855469 9.48148438 14.33710938 8.69921875 13.48046875 C7.69534886 12.38277925 6.6914406 11.28512484 5.6875 10.1875 C5.18798828 9.64029297 4.68847656 9.09308594 4.17382812 8.52929688 C1.83056872 5.96878163 -0.51144854 3.42060466 -3 1 C-2.01 0.67 -1.02 0.34 0 0 Z " fill="#D95F20" transform="translate(12,11)"/>
<path d="M0 0 C0.90105469 0.00902344 1.80210937 0.01804688 2.73046875 0.02734375 C3.41753906 0.03894531 4.10460937 0.05054688 4.8125 0.0625 C-2.06910129 4.0474662 -11.36573833 4.42630287 -19.1875 4.0625 C-19.1875 3.4025 -19.1875 2.7425 -19.1875 2.0625 C-18.42824219 2.00191406 -17.66898438 1.94132813 -16.88671875 1.87890625 C-15.89285156 1.79511719 -14.89898437 1.71132812 -13.875 1.625 C-12.88886719 1.54378906 -11.90273437 1.46257812 -10.88671875 1.37890625 C-7.06121058 0.93047476 -3.91529205 -0.05084795 0 0 Z " fill="#D66122" transform="translate(198.1875,139.9375)"/>
<path d="M0 0 C3.96 0 7.92 0 12 0 C11.01 2.31 10.02 4.62 9 7 C8.2575 6.401875 7.515 5.80375 6.75 5.1875 C4.52921629 3.4209675 2.27015663 1.70261747 0 0 Z " fill="#D8642A" transform="translate(109,8)"/>
<path d="M0 0 C0.66 0 1.32 0 2 0 C2 4.29 2 8.58 2 13 C0.35 13.66 -1.3 14.32 -3 15 C-2.7834375 14.41992188 -2.566875 13.83984375 -2.34375 13.2421875 C-0.71564951 8.67446113 0.37861182 4.9219536 0 0 Z " fill="#D56020" transform="translate(198,98)"/>
<path d="M0 0 C0 3.25811062 -0.5522078 5.10441559 -2 8 C-2.99 8.33 -3.98 8.66 -5 9 C-5 9.99 -5 10.98 -5 12 C-7.5 13.6875 -7.5 13.6875 -10 15 C-8.37815499 11.41486894 -6.20743761 8.41007677 -3.875 5.25 C-3.15054688 4.26515625 -2.42609375 3.2803125 -1.6796875 2.265625 C-1.12539062 1.51796875 -0.57109375 0.7703125 0 0 Z " fill="#D16226" transform="translate(107,40)"/>
<path d="M0 0 C2.97 0 5.94 0 9 0 C7.38262276 3.23475448 6.52370777 4.70572021 4 7 C4.33 5.35 4.66 3.7 5 2 C4.34 2 3.68 2 3 2 C3 2.66 3 3.32 3 4 C1.68 4 0.36 4 -1 4 C-0.67 2.68 -0.34 1.36 0 0 Z " fill="#DB5C1B" transform="translate(56,9)"/>
<path d="M0 0 C0.66 0.33 1.32 0.66 2 1 C-0.31 4.63 -2.62 8.26 -5 12 C-3.35 12.33 -1.7 12.66 0 13 C0 13.33 0 13.66 0 14 C-1.65 14 -3.3 14 -5 14 C-5.9392247 10.34745949 -6.2652614 7.60112861 -5 4 C-3 2.8125 -3 2.8125 -1 2 C-0.67 1.34 -0.34 0.68 0 0 Z " fill="#D45E24" transform="translate(142,42)"/>
<path d="M0 0 C1.0635774 3.19073219 0.89019883 3.93375957 0 7 C0 7.66 0 8.32 0 9 C-0.66 9 -1.32 9 -2 9 C-2.33 9.99 -2.66 10.98 -3 12 C-4.32 11.67 -5.64 11.34 -7 11 C-4.69 7.37 -2.38 3.74 0 0 Z " fill="#D95C1D" transform="translate(115,28)"/>
<path d="M0 0 C0.8971875 0.928125 0.8971875 0.928125 1.8125 1.875 C4.00811144 4.13676954 4.00811144 4.13676954 7 6 C1.72 5.34 -3.56 4.68 -9 4 C-9 3.67 -9 3.34 -9 3 C-8.43410156 2.86722656 -7.86820313 2.73445313 -7.28515625 2.59765625 C-6.18494141 2.33275391 -6.18494141 2.33275391 -5.0625 2.0625 C-4.33160156 1.88847656 -3.60070312 1.71445313 -2.84765625 1.53515625 C-1.00030102 1.16112431 -1.00030102 1.16112431 0 0 Z " fill="#DF5D1C" transform="translate(181,85)"/>
<path d="M0 0 C1.258125 -0.04125 2.51625 -0.0825 3.8125 -0.125 C4.52019531 -0.14820312 5.22789063 -0.17140625 5.95703125 -0.1953125 C8 0 8 0 11 2 C11 2.66 11 3.32 11 4 C10.34 4 9.68 4 9 4 C9 3.34 9 2.68 9 2 C7.35 2 5.7 2 4 2 C3.67 2.99 3.34 3.98 3 5 C1.68 4.34 0.36 3.68 -1 3 C-0.67 2.01 -0.34 1.02 0 0 Z " fill="#DD5E11" transform="translate(31,19)"/>
<path d="M0 0 C2.1640625 0.77734375 2.1640625 0.77734375 4.625 1.9375 C5.44226563 2.31777344 6.25953125 2.69804687 7.1015625 3.08984375 C7.72804688 3.39019531 8.35453125 3.69054687 9 4 C9 4.33 9 4.66 9 5 C5.7 5 2.4 5 -1 5 C-1.33 3.68 -1.66 2.36 -2 1 C-1.34 0.67 -0.68 0.34 0 0 Z " fill="#D25E26" transform="translate(113,137)"/>
<path d="M0 0 C4 1 4 1 6 3 C6.99 3 7.98 3 9 3 C8.42655063 5.86724686 8.1385485 6.8614515 6 9 C4.02 6.03 2.04 3.06 0 0 Z " fill="#DC601E" transform="translate(58,76)"/>
<path d="M0 0 C3.3 0 6.6 0 10 0 C6.43688534 2.672336 4.15414253 3.77263971 0 5 C0 3.35 0 1.7 0 0 Z " fill="#DB5F1E" transform="translate(207,134)"/>
<path d="M0 0 C2.31 0 4.62 0 7 0 C7 0.66 7 1.32 7 2 C6.071875 2.1546875 6.071875 2.1546875 5.125 2.3125 C2.63473516 2.87525373 2.63473516 2.87525373 1 6 C0.34 5.34 -0.32 4.68 -1 4 C-0.625 1.875 -0.625 1.875 0 0 Z " fill="#DF5B15" transform="translate(25,25)"/>
<path d="M0 0 C2.97 0 5.94 0 9 0 C9 1.32 9 2.64 9 4 C6.03 3.01 3.06 2.02 0 1 C0 0.67 0 0.34 0 0 Z " fill="#DC7432" transform="translate(0,8)"/>
<path d="M0 0 C2.25 0.25 2.25 0.25 4 1 C4 2.32 4 3.64 4 5 C1.36 4.67 -1.28 4.34 -4 4 C-2.25 1.9375 -2.25 1.9375 0 0 Z " fill="#DE5F19" transform="translate(129,77)"/>
<path d="M0 0 C0.268125 0.5775 0.53625 1.155 0.8125 1.75 C1.93880119 4.06461975 1.93880119 4.06461975 3.6875 6.0625 C4.120625 6.701875 4.55375 7.34125 5 8 C4.67 8.99 4.34 9.98 4 11 C2.99421411 9.71283353 1.99553202 8.42011342 1 7.125 C0.443125 6.40570313 -0.11375 5.68640625 -0.6875 4.9453125 C-2 3 -2 3 -2 1 C-1.34 0.67 -0.68 0.34 0 0 Z " fill="#D66123" transform="translate(31,33)"/>
<path d="M0 0 C1.32 1.65 2.64 3.3 4 5 C3.34 5 2.68 5 2 5 C2.33 6.32 2.66 7.64 3 9 C2.01 9 1.02 9 0 9 C0 6.03 0 3.06 0 0 Z " fill="#DD5B19" transform="translate(109,133)"/>
<path d="M0 0 C0 0.99 0 1.98 0 3 C-4.1196377 4.29243536 -7.66831683 5.26252625 -12 5 C-10.66666667 4.33333333 -9.33333333 3.66666667 -8 3 C-6.96875 2.46375 -5.9375 1.9275 -4.875 1.375 C-2 0 -2 0 0 0 Z " fill="#D26229" transform="translate(195,113)"/>
<path d="M0 0 C1.98 0.66 3.96 1.32 6 2 C3.33333333 2.66666667 0.66666667 3.33333333 -2 4 C-1.34 2.68 -0.68 1.36 0 0 Z " fill="#E15B14" transform="translate(216,73)"/>
</svg>
