<?xml version="1.0" encoding="UTF-8"?>
<svg version="1.1" xmlns="http://www.w3.org/2000/svg" width="241" height="153">
<path d="M0 0 C0.9208136 -0.00295074 1.8416272 -0.00590149 2.79034424 -0.00894165 C47.23011775 -0.04119112 47.23011775 -0.04119112 63.9375 8.3125 C63.9375 20.5225 63.9375 32.7325 63.9375 45.3125 C63.2775 45.3125 62.6175 45.3125 61.9375 45.3125 C61.59138672 44.43078125 61.59138672 44.43078125 61.23828125 43.53125 C57.13947948 36.53990044 47.16414176 33.18156619 39.7265625 31.15234375 C21.93953112 27.20985741 4.09035114 26.65694555 -14.0625 26.3125 C-14.34931641 26.90869141 -14.63613281 27.50488281 -14.93164062 28.11914062 C-16.84287783 31.82608257 -19.37547396 35.14004479 -21.78515625 38.53515625 C-23.78759415 41.38350851 -25.55455486 44.1780073 -27.0625 47.3125 C-19.24160622 49.39520907 -11.48621318 51.01039972 -3.48046875 52.1796875 C-1.30917949 52.51129146 0.86204245 52.84333644 3.03320312 53.17578125 C6.38896255 53.68331753 9.74520039 54.18679192 13.1027832 54.68212891 C51.27113339 60.34229789 51.27113339 60.34229789 62.6171875 73.21875 C69.18056538 82.69486955 70.05275704 94.31480087 68.50390625 105.421875 C66.98644469 112.84895395 64.14739908 117.85243875 58.9375 123.3125 C58.41285156 123.87710938 57.88820312 124.44171875 57.34765625 125.0234375 C45.09089878 136.83068064 25.9383128 137.66206046 9.9375 138.3125 C9.9375 129.7325 9.9375 121.1525 9.9375 112.3125 C17.0625 111.0625 17.0625 111.0625 19.27001953 110.69824219 C24.48443487 109.71673846 28.92617672 107.872366 32.3125 103.5625 C33.50165877 99.28152844 33.83011721 93.41317061 31.9375 89.3125 C24.08647646 84.74694486 14.21948636 83.70649118 5.3828125 82.375 C4.31940643 82.2087915 3.25600037 82.04258301 2.16036987 81.87133789 C-1.20470293 81.34582585 -4.57093337 80.82834879 -7.9375 80.3125 C-35.63538918 76.05497298 -35.63538918 76.05497298 -46.0625 73.3125 C-56.4895106 84.06112294 -58.09165362 93.23443942 -57.88476562 108.01831055 C-57.56714407 116.11385302 -56.95522815 123.71613527 -51.75 130.1875 C-48.98137077 132.37664869 -46.28530928 133.88846799 -43.0625 135.3125 C-43.0625 135.6425 -43.0625 135.9725 -43.0625 136.3125 C-64.5125 136.3125 -85.9625 136.3125 -108.0625 136.3125 C-108.0625 135.6525 -108.0625 134.9925 -108.0625 134.3125 C-106.79192818 133.83264033 -105.52103152 133.3536407 -104.25 132.875 C-103.54230469 132.60816406 -102.83460937 132.34132812 -102.10546875 132.06640625 C-100.43577604 131.45024814 -98.75092296 130.87530765 -97.0625 130.3125 C-90.98968459 119.23854248 -90.74267287 101.33742668 -93.0625 89.3125 C-95.68784324 83.05543195 -99.99116558 78.05591586 -104.50341797 73.06347656 C-106.43340296 70.89594566 -108.07047233 68.59516282 -109.6875 66.1875 C-110.21214844 65.43339844 -110.73679688 64.67929688 -111.27734375 63.90234375 C-113.1396188 61.20061868 -114.99585608 58.49481275 -116.8515625 55.78857422 C-130.56394078 34.17346095 -130.56394078 34.17346095 -146.80859375 14.6171875 C-148.0625 13.3125 -148.0625 13.3125 -148.0625 11.3125 C-148.578125 11.065 -149.09375 10.8175 -149.625 10.5625 C-151.61641875 9.54125962 -153.56558136 8.43797994 -155.5 7.3125 C-158.27584903 5.70920789 -161.04273812 4.41059523 -164.0625 3.3125 C-164.0625 2.6525 -164.0625 1.9925 -164.0625 1.3125 C-141.2925 1.3125 -118.5225 1.3125 -95.0625 1.3125 C-95.0625 1.9725 -95.0625 2.6325 -95.0625 3.3125 C-96.01125 3.745625 -96.96 4.17875 -97.9375 4.625 C-101.26291937 6.10552201 -101.26291937 6.10552201 -103.0625 9.3125 C-104.73461095 21.01727663 -94.86160897 31.00148931 -88.37109375 39.796875 C-84.6989553 44.77482715 -81.22247887 49.87253139 -77.76953125 55.00390625 C-76.2689338 57.39815295 -76.2689338 57.39815295 -74.0625 58.3125 C-73.794375 57.74273437 -73.52625 57.17296875 -73.25 56.5859375 C-72.01115448 54.21420034 -70.61129409 52.11921475 -69.0625 49.9375 C-68.44375 49.06222656 -67.825 48.18695313 -67.1875 47.28515625 C-65.67143995 45.16434431 -64.15091901 43.04727859 -62.625 40.93359375 C-50.90798543 26.52291869 -50.90798543 26.52291869 -47.0625 9.3125 C-49.30209074 6.3530408 -51.67181932 4.76564886 -55.0625 3.3125 C-55.0625 2.6525 -55.0625 1.9925 -55.0625 1.3125 C-54.4641333 1.31773682 -53.8657666 1.32297363 -53.24926758 1.32836914 C-50.45785636 1.34954666 -47.66646213 1.36228677 -44.875 1.375 C-43.93462891 1.38337891 -42.99425781 1.39175781 -42.02539062 1.40039062 C-37.01021313 1.41739123 -32.07486695 1.26761435 -27.078125 0.828125 C-18.06171394 0.07937814 -9.0426559 0.02558536 0 0 Z M-129.0625 14.3125 C-129.44468767 15.96864657 -129.77645102 17.63707024 -130.0625 19.3125 C-128.99604885 20.60883621 -128.99604885 20.60883621 -126.5 20.375 C-125.695625 20.354375 -124.89125 20.33375 -124.0625 20.3125 C-124.0625 18.3325 -124.0625 16.3525 -124.0625 14.3125 C-125.7125 14.3125 -127.3625 14.3125 -129.0625 14.3125 Z " fill="#1FB8FE" transform="translate(168.0625,8.6875)"/>
<path d="M0 0 C2.31 0 4.62 0 7 0 C7 0.66 7 1.32 7 2 C5.576875 2.6496875 5.576875 2.6496875 4.125 3.3125 C0.79958063 4.79302201 0.79958063 4.79302201 -1 8 C-1.24150773 10.51584891 -1.24150773 10.51584891 -1.125 13.1875 C-1.10695313 14.08855469 -1.08890625 14.98960938 -1.0703125 15.91796875 C-1.04710938 16.60503906 -1.02390625 17.29210937 -1 18 C-3.38224928 15.61775072 -3.32017149 14.9497963 -3.375 11.6875 C-3.30419139 7.29736646 -2.21299042 5.11258447 1 2 C0.67 1.34 0.34 0.68 0 0 Z " fill="#D6F2FF" transform="translate(66,10)"/>
</svg>
