<?xml version="1.0" standalone="no"?>
<!DOCTYPE svg PUBLIC "-//W3C//DTD SVG 20010904//EN"
 "http://www.w3.org/TR/2001/REC-SVG-20010904/DTD/svg10.dtd">
<svg version="1.0" xmlns="http://www.w3.org/2000/svg"
 width="500.000000pt" height="500.000000pt" viewBox="0 0 500.000000 500.000000"
 preserveAspectRatio="xMidYMid meet">

<g transform="translate(0.000000,500.000000) scale(0.100000,-0.100000)"
fill="#000000" stroke="none">
<path d="M3153 4000 c-67 -5 -184 -19 -260 -30 -100 -14 -190 -20 -327 -20
l-188 0 53 -28 c90 -47 130 -131 110 -232 -19 -94 -73 -184 -312 -515 -127
-176 -248 -344 -268 -373 l-38 -53 -105 148 c-491 691 -498 703 -506 827 -6
101 28 158 123 205 l40 20 -685 0 -685 1 58 -24 c148 -61 260 -161 417 -371
53 -71 280 -391 505 -710 225 -319 426 -604 447 -634 l38 -54 0 -311 c0 -399
-13 -466 -106 -559 -33 -33 -60 -49 -164 -95 -19 -8 140 -11 625 -11 l650 0
-71 30 c-85 36 -147 86 -176 143 -44 85 -50 135 -55 468 l-5 318 136 194 c77
111 142 193 149 191 156 -51 231 -66 837 -160 513 -79 572 -91 660 -131 114
-52 154 -112 155 -234 0 -76 -3 -91 -29 -138 -59 -106 -148 -147 -411 -189
l-50 -8 -3 -252 -2 -253 32 0 c56 0 299 29 383 45 275 53 496 165 618 313 52
62 104 167 129 261 30 109 30 353 0 462 -70 260 -244 418 -562 512 -112 34
-115 34 -700 127 -278 44 -527 85 -555 91 -74 17 -155 49 -155 61 0 6 42 70
93 142 51 72 124 175 162 229 l68 97 171 0 c301 0 636 -35 871 -90 206 -49
394 -145 488 -249 l47 -53 0 366 0 365 -52 16 c-29 8 -94 24 -144 35 -50 11
-97 22 -105 24 -28 10 -354 57 -492 71 -175 18 -689 27 -854 15z m-2243 -278
c44 -55 7 -132 -63 -132 -45 0 -76 26 -83 70 -14 83 94 129 146 62z"/>
</g>
</svg>
