<?xml version="1.0" encoding="UTF-8"?>
<svg version="1.1" xmlns="http://www.w3.org/2000/svg" width="500" height="500">
<path d="M0 0 C1.53188965 0.02900391 1.53188965 0.02900391 3.09472656 0.05859375 C41.1417656 0.84188126 87.51240513 2.79103077 123 18 C123 43.08 123 68.16 123 94 C121.68 92.35 120.36 90.7 119 89 C94.42300485 61.08403669 48.59949219 56.61890549 13.85302734 54.23583984 C12.58152832 54.1580127 11.3100293 54.08018555 10 54 C9.18960266 53.94684631 8.37920532 53.89369263 7.54425049 53.83892822 C1.68739666 53.46463545 -4.16325306 53.20832867 -10.02978516 53.0456543 C-12.09812187 52.97338161 -14.16561251 52.87067242 -16.23095703 52.73803711 C-27.63628951 51.64678821 -27.63628951 51.64678821 -37.96170044 55.48330688 C-41.41857239 59.23604032 -43.77988155 63.50909495 -46.02148438 68.06539917 C-47.26332038 70.5206047 -48.78087472 72.6873955 -50.41796875 74.89453125 C-50.88364258 75.55461182 -51.34931641 76.21469238 -51.82910156 76.89477539 C-52.27737305 77.52762451 -52.72564453 78.16047363 -53.1875 78.8125 C-53.68088867 79.51044678 -54.17427734 80.20839355 -54.68261719 80.92749023 C-58.73875871 86.6547779 -62.84598392 92.34320752 -67 98 C-64.13388944 100.86611056 -60.71680588 101.38516941 -56.89404297 102.37524414 C-56.05257658 102.5939898 -55.21111019 102.81273546 -54.34414482 103.03810978 C-44.66395878 105.45997227 -34.86049292 106.99733025 -25.0022316 108.4935894 C-21.59921461 109.01069635 -18.19851122 109.54122817 -14.79806519 110.07496643 C-5.1443501 111.58756975 4.51328452 113.07454417 14.17138672 114.55883789 C20.12140285 115.47418924 26.06926009 116.40269217 32.0161171 117.33833504 C35.32483585 117.85472947 38.63561626 118.35589844 41.94674683 118.85655212 C70.23070494 123.24066734 101.72450826 130.46374325 119.93359375 154.55859375 C132.50517954 173.18616925 135.11054945 196.32309202 131.78515625 218.19140625 C127.60961167 238.44591354 117.80419472 253.76085909 101.01220703 265.67626953 C90.4491458 272.62517975 78.16079659 276.83036948 66 280 C65.31873047 280.18014648 64.63746094 280.36029297 63.93554688 280.54589844 C47.68681529 284.70973003 29.78908396 287 13 287 C13 269.51 13 252.02 13 234 C23.395 232.515 23.395 232.515 34 231 C43.97852658 228.38879678 53.61481151 224.7916904 59.125 215.5 C62.20367554 208.33468398 62.344397 199.92695214 60.30078125 192.4375 C56.94747142 184.96683507 50.24806833 181.1086516 43 178 C39.8327744 176.97269882 36.63290728 176.203176 33.38574219 175.47241211 C32.47407665 175.26196982 31.56241112 175.05152754 30.62311935 174.83470821 C21.40154437 172.76548152 12.11036882 171.26090322 2.76499176 169.87680244 C-0.27779953 169.42570273 -3.31859526 168.96270673 -6.35919189 168.49705505 C-13.9060648 167.34341689 -21.45549225 166.20694186 -29.00549316 165.07397461 C-36.43779502 163.95836081 -43.86862707 162.83372411 -51.296875 161.69140625 C-52.31353745 161.53510365 -53.33019989 161.37880104 -54.37767029 161.21776199 C-68.79284082 158.98496266 -82.9348242 156.35746366 -97.02111816 152.52316284 C-99.32998815 151.91276006 -101.64939832 151.4210532 -104 151 C-106.10540806 153.99913041 -108.2090678 156.99948357 -110.3125 160 C-110.88806641 160.81984375 -111.46363281 161.6396875 -112.05664062 162.484375 C-113.31763186 164.28384357 -114.55832099 166.09763549 -115.78320312 167.921875 C-117.4271047 170.20450838 -119.01748123 172.15013223 -120.90429688 174.203125 C-131.44298069 186.34982918 -130.42135207 199.61001163 -129.93017578 214.97973633 C-129.85673132 217.66890868 -129.83551195 220.35735071 -129.81594086 223.04737282 C-130.66779136 248.45901928 -130.66779136 248.45901928 -121 271 C-120.56558594 271.51433594 -120.13117188 272.02867187 -119.68359375 272.55859375 C-113.89968841 278.37270225 -105.45966956 280.97314729 -98 284 C-98 284.33 -98 284.66 -98 285 C-142.88 285 -187.76 285 -234 285 C-230.74780396 281.74780396 -226.24224275 280.46549206 -222.02929688 278.7421875 C-214.43786735 275.53988236 -209.5514828 271.50709984 -206 264 C-201.07219118 249.39983916 -201.49185049 233.38343513 -201.21044922 218.14257812 C-201.15380197 215.72778663 -201.07204602 213.31344463 -200.96435547 210.90039062 C-200.22288317 193.8953394 -202.05462737 183.14537487 -213.27679443 170.05822754 C-216.21260568 166.55164209 -218.80072969 162.79581188 -221.4375 159.0625 C-222.51739843 157.57491741 -223.59789928 156.08777138 -224.6796875 154.6015625 C-229.99366564 147.26682024 -235.14620003 139.81801872 -240.32861328 132.39013672 C-242.87323911 128.75124001 -245.4358893 125.12518104 -248 121.5 C-252.35121777 115.34577136 -256.68089404 109.17680496 -261 103 C-266.33948533 95.3647551 -271.69821876 87.74353145 -277.078125 80.13671875 C-279.03242071 77.37291671 -280.97982176 74.60444838 -282.921875 71.83203125 C-310.23263481 32.38942097 -310.23263481 32.38942097 -350 7 C-350 6.67 -350 6.34 -350 6 C-303.14 6 -256.28 6 -208 6 C-209.37393489 8.74786978 -210.97628949 9.05284153 -213.75 10.3125 C-219.55898481 13.16720111 -223.07467227 15.47637893 -225.375 21.75 C-227.75023625 33.96876338 -222.1054024 44.76459452 -215.5 54.625 C-213.35872299 57.76808054 -211.1854753 60.88753203 -209 64 C-208.49339844 64.72558105 -207.98679688 65.45116211 -207.46484375 66.19873047 C-204.49790154 70.4448276 -201.50513734 74.67198653 -198.5 78.89111328 C-195.98982708 82.42022684 -193.49574132 85.96067374 -191 89.5 C-190.00659359 90.90761079 -189.01310388 92.31516279 -188.01953125 93.72265625 C-187.27823975 94.77283936 -187.27823975 94.77283936 -186.52197266 95.84423828 C-184.95639467 98.06176373 -183.39035319 100.27896127 -181.82421875 102.49609375 C-176.53379644 109.98650174 -171.24768353 117.47955213 -166 125 C-160.80984917 118.90039676 -156.22845521 112.50505221 -151.75 105.875 C-147.16033076 99.08353896 -142.42069036 92.45781172 -137.46118164 85.93261719 C-132.22614495 79.026419 -127.2509164 71.94453755 -122.28955078 64.84033203 C-121.16864166 63.24067036 -120.03647341 61.64890964 -118.90234375 60.05859375 C-110.74720617 48.60555437 -103.04926048 37.69557107 -105 23 C-106.66024379 17.66222695 -109.2075333 13.98197928 -114 11 C-116.9605842 9.56456523 -119.95558523 8.24694984 -123 7 C-123 6.67 -123 6.34 -123 6 C-121.71649658 5.98541748 -120.43299316 5.97083496 -119.1105957 5.95581055 C-114.24022772 5.89679756 -109.37027389 5.81959641 -104.50024414 5.73754883 C-102.41274861 5.70477433 -100.3251745 5.67660375 -98.23754883 5.65356445 C-85.57011634 5.51013653 -73.35740911 4.68911705 -60.84350586 2.71948242 C-53.79589292 1.62613785 -46.74385983 1.19338223 -39.625 0.8125 C-38.92421326 0.77297211 -38.22342651 0.73344421 -37.50140381 0.69271851 C-24.99126207 -0.01004497 -12.52785495 -0.29005589 0 0 Z M-281 31 C-281.64405526 35.00745494 -281.68736819 37.03259292 -279.3125 40.375 C-276.68803583 42.21921807 -275.21070053 42.92169023 -272 43 C-269.7168162 41.8584081 -267.80987317 40.80987317 -266 39 C-265.71193212 36.07130985 -265.50759914 33.84928587 -266 31 C-268.39421995 28.26374862 -269.94269804 27.21146039 -273.5 26.5 C-277.01563017 27.20312603 -278.6064483 28.33289953 -281 31 Z " fill="#535353" transform="translate(358,98)"/>
<path d="M0 0 C0.66 0 1.32 0 2 0 C2 3 2 3 0.5 4.6875 C0.005 5.120625 -0.49 5.55375 -1 6 C-0.67 6.99 -0.34 7.98 0 9 C28.71 9.33 57.42 9.66 87 10 C87 10.33 87 10.66 87 11 C51.69 11 16.38 11 -20 11 C-16.68260987 7.68260987 -12.05098841 6.35696893 -7.765625 4.56640625 C-3.54740891 2.80980793 -3.54740891 2.80980793 0 0 Z " fill="#4F4D4F" transform="translate(144,372)"/>
<path d="M0 0 C0 0.33 0 0.66 0 1 C-8.93165006 2.76189944 -17.65948596 3.3972627 -26.75 3.625 C-28.67199219 3.68300781 -28.67199219 3.68300781 -30.6328125 3.7421875 C-33.7550747 3.83538936 -36.87734693 3.9211969 -40 4 C-40.33 4.99 -40.66 5.98 -41 7 C-45.23429756 5.68938409 -49.07407404 4.05643741 -53 2 C-53 1.67 -53 1.34 -53 1 C-46.57709082 0.85650095 -40.15415559 0.71421384 -33.73120117 0.57275391 C-31.54792681 0.524528 -29.36465848 0.47602858 -27.18139648 0.42724609 C-24.03631117 0.3570209 -20.89120524 0.28779175 -17.74609375 0.21875 C-16.7760289 0.19687622 -15.80596405 0.17500244 -14.8065033 0.15246582 C-9.86951445 0.04507833 -4.93815005 -0.02387021 0 0 Z " fill="#494949" transform="translate(288,103)"/>
<path d="M0 0 C14.85 0 29.7 0 45 0 C44.67 0.66 44.34 1.32 44 2 C32.78 2 21.56 2 10 2 C10 2.66 10 3.32 10 4 C8.51882199 3.71872579 7.04006751 3.42466268 5.5625 3.125 C4.73878906 2.96257812 3.91507813 2.80015625 3.06640625 2.6328125 C2.38449219 2.42398438 1.70257813 2.21515625 1 2 C0.67 1.34 0.34 0.68 0 0 Z " fill="#474747" transform="translate(8,104)"/>
<path d="M0 0 C0.33 0 0.66 0 1 0 C1 5.28 1 10.56 1 16 C-0.32 14.35 -1.64 12.7 -3 11 C-4.39494753 9.54141435 -5.81093684 8.10257877 -7.25 6.6875 C-7.95640625 5.99011719 -8.6628125 5.29273438 -9.390625 4.57421875 C-9.92171875 4.05472656 -10.4528125 3.53523437 -11 3 C-8.37886292 3 -6.49064888 3.31292445 -4 4 C-3.67 3.34 -3.34 2.68 -3 2 C-2.34 2 -1.68 2 -1 2 C-0.67 1.34 -0.34 0.68 0 0 Z " fill="#4D4D4D" transform="translate(480,176)"/>
<path d="M0 0 C1.03136513 3.09409538 0.94810547 3.94343749 0.375 7 C-0.29483845 11.9829446 0.8454306 15.89436328 2.40625 20.6171875 C3 23 3 23 2 26 C-1.26889718 19.61079187 -4.2559101 10.98775726 -2.453125 3.828125 C-1.625 2.1875 -1.625 2.1875 0 0 Z " fill="#424242" transform="translate(132,116)"/>
<path d="M0 0 C9.36300366 0.2323326 17.49898345 0.60644577 26 5 C22.54483715 6.15172095 21.17779756 5.79718066 17.67578125 5.00390625 C16.64775391 4.77509766 15.61972656 4.54628906 14.56054688 4.31054688 C13.48869141 4.06369141 12.41683594 3.81683594 11.3125 3.5625 C10.22904297 3.31951172 9.14558594 3.07652344 8.02929688 2.82617188 C5.35119153 2.22448301 2.67495958 1.61549703 0 1 C0 0.67 0 0.34 0 0 Z " fill="#3C3B3B" transform="translate(375,269)"/>
<path d="M0 0 C0.66 0.33 1.32 0.66 2 1 C1.75 3.375 1.75 3.375 1 6 C-0.875 7.125 -0.875 7.125 -3 8 C-4.70921589 9.5412312 -4.70921589 9.5412312 -6 11 C-6 7.39426104 -5.18292538 6.58663434 -3 3.8125 C-2.443125 3.09707031 -1.88625 2.38164062 -1.3125 1.64453125 C-0.879375 1.10183594 -0.44625 0.55914062 0 0 Z " fill="#4B4B4B" transform="translate(210,199)"/>
<path d="M0 0 C2.97 0 5.94 0 9 0 C8 2 8 2 5.93359375 2.8515625 C4.69802734 3.23441406 4.69802734 3.23441406 3.4375 3.625 C2.19806641 4.01558594 2.19806641 4.01558594 0.93359375 4.4140625 C0.29550781 4.60742188 -0.34257812 4.80078125 -1 5 C-1 2 -1 2 0 0 Z " fill="#494949" transform="translate(141,104)"/>
<path d="M0 0 C0 3 0 3 -1.5 4.625 C-5.0002159 6.55011875 -8.02798992 6.66899916 -12 7 C-2.9 0 -2.9 0 0 0 Z " fill="#424142" transform="translate(146,372)"/>
<path d="M0 0 C2.43929746 1.92576115 4.80090595 3.80090595 7 6 C2.87248551 5.39301257 -0.3321148 3.96189209 -4 2 C-2.68 1.34 -1.36 0.68 0 0 Z " fill="#454545" transform="translate(448,163)"/>
<path d="M0 0 C2.29013653 3.4352048 2.17842973 4.985331 2 9 C1.01 8.67 0.02 8.34 -1 8 C-0.67 5.36 -0.34 2.72 0 0 Z " fill="#494949" transform="translate(485,268)"/>
<path d="M0 0 C-0.33 1.32 -0.66 2.64 -1 4 C-2.32 4.33 -3.64 4.66 -5 5 C-5 4.01 -5 3.02 -5 2 C-2 0 -2 0 0 0 Z " fill="#4D4D4D" transform="translate(312,164)"/>
</svg>
